{
	"asset":{
		"generator":"Khronos glTF Blender I/O v3.6.27",
		"version":"2.0"
	},
	"extensionsUsed":[
		"KHR_materials_specular",
		"KHR_materials_ior"
	],
	"scene":0,
	"scenes":[
		{
			"name":"Scene",
			"nodes":[
				3,
				4,
				5,
				6,
				7,
				8,
				9,
				10,
				11,
				12,
				13,
				14,
				15,
				16,
				17,
				18,
				19,
				20
			]
		}
	],
	"nodes":[
		{
			"name":"BUILDING",
			"rotation":[
				-0.70710688829422,
				0,
				0,
				0.7071066498756409
			]
		},
		{
			"children":[
				0
			],
			"name":"RootNode"
		},
		{
			"children":[
				1
			],
			"name":"temple-interior.FBX",
			"rotation":[
				0.70710688829422,
				0,
				0,
				0.7071066498756409
			]
		},
		{
			"children":[
				2
			],
			"name":"Sketchfab_model",
			"rotation":[
				-0.70710688829422,
				0,
				0,
				0.7071066498756409
			]
		},
		{
			"mesh":0,
			"name":"BUILDING.001"
		},
		{
			"mesh":1,
			"name":"vigueria"
		},
		{
			"mesh":2,
			"name":"reja01",
			"rotation":[
				0.5,
				0.5,
				-0.5,
				0.5
			],
			"translation":[
				-3.299999952316284,
				8.075000762939453,
				-6
			]
		},
		{
			"mesh":3,
			"name":"reja02",
			"rotation":[
				0.5,
				0.5,
				-0.5,
				0.5
			],
			"translation":[
				-3.299999952316284,
				8.075000762939453,
				-3
			]
		},
		{
			"mesh":4,
			"name":"reja03",
			"rotation":[
				0.5,
				0.5,
				-0.5,
				0.5
			],
			"translation":[
				-3.299999952316284,
				8.075000762939453,
				0
			]
		},
		{
			"mesh":5,
			"name":"reja04",
			"rotation":[
				0.5,
				0.5,
				-0.5,
				0.5
			],
			"translation":[
				-3.299999952316284,
				8.075000762939453,
				3
			]
		},
		{
			"mesh":6,
			"name":"reja05",
			"rotation":[
				0.3535534143447876,
				0.6123724579811096,
				-0.6123725175857544,
				0.3535534143447876
			],
			"translation":[
				-2.5098092555999756,
				8.075000762939453,
				5.949036598205566
			]
		},
		{
			"mesh":7,
			"name":"reja06",
			"rotation":[
				0,
				-0.7071068286895752,
				0.7071068286895752,
				5.338509012631221e-08
			],
			"translation":[
				0,
				8.075000762939453,
				7.398076057434082
			]
		},
		{
			"mesh":8,
			"name":"reja07",
			"rotation":[
				0.3535534739494324,
				-0.6123723387718201,
				0.6123724579811096,
				0.35355344414711
			],
			"translation":[
				2.509808301925659,
				8.075000762939453,
				5.949039459228516
			]
		},
		{
			"mesh":9,
			"name":"reja08",
			"rotation":[
				0.3535534739494324,
				-0.6123723387718201,
				0.6123724579811096,
				0.35355344414711
			],
			"translation":[
				4.009809494018555,
				1.324998378753662,
				8.547115325927734
			]
		},
		{
			"mesh":10,
			"name":"reja09",
			"rotation":[
				0,
				-0.7071068286895752,
				0.7071068286895752,
				5.338509012631221e-08
			],
			"translation":[
				1.5000007152557373,
				1.324998378753662,
				9.996150970458984
			]
		},
		{
			"mesh":11,
			"name":"reja10",
			"rotation":[
				0,
				-0.7071068286895752,
				0.7071068286895752,
				5.338509012631221e-08
			],
			"translation":[
				-1.4999995231628418,
				1.324998378753662,
				9.996150970458984
			]
		},
		{
			"mesh":12,
			"name":"reja11",
			"rotation":[
				0.3535534143447876,
				0.6123724579811096,
				-0.6123725175857544,
				0.3535534143447876
			],
			"translation":[
				-4.0098066329956055,
				1.324998378753662,
				8.547112464904785
			]
		},
		{
			"mesh":13,
			"name":"reja12",
			"rotation":[
				0.7071068286895752,
				0,
				0,
				0.7071068286895752
			],
			"translation":[
				0,
				8.075000762939453,
				-7.800002098083496
			]
		},
		{
			"mesh":14,
			"name":"sunbeams",
			"rotation":[
				-0.569800615310669,
				-0.6967992186546326,
				-0.4187210202217102,
				0.12029503285884857
			],
			"translation":[
				-0.0055266618728637695,
				9.032231330871582,
				-7.775113105773926
			]
		},
		{
			"mesh":15,
			"name":"door",
			"rotation":[
				0,
				-0.7071068286895752,
				0,
				0.7071067094802856
			],
			"scale":[
				1.399999976158142,
				1.399999976158142,
				1.399999976158142
			],
			"translation":[
				6.169408798217773,
				-9.09999942779541,
				-3.1599984169006348
			]
		},
		{
			"mesh":16,
			"name":"ventanas"
		}
	],
	"materials":[
		{
			"doubleSided":true,
			"extensions":{
				"KHR_materials_specular":{
					"specularColorFactor":[
						2.371357614441398,
						2.371357614441398,
						2.371357614441398
					]
				},
				"KHR_materials_ior":{
					"ior":1.4500000476837158
				}
			},
			"name":"vigueria",
			"pbrMetallicRoughness":{
				"baseColorFactor":[
					0.1882353127002716,
					0.13725490868091583,
					0.08627451211214066,
					1
				],
				"metallicFactor":0,
				"roughnessFactor":0.5527864098548889
			}
		},
		{
			"doubleSided":true,
			"extensions":{
				"KHR_materials_specular":{
					"specularColorFactor":[
						2.371357614441398,
						2.371357614441398,
						2.371357614441398
					]
				},
				"KHR_materials_ior":{
					"ior":1.4500000476837158
				}
			},
			"name":"black",
			"pbrMetallicRoughness":{
				"baseColorFactor":[
					0,
					0,
					0,
					1
				],
				"metallicFactor":0,
				"roughnessFactor":0.5527864098548889
			}
		},
		{
			"doubleSided":true,
			"extensions":{
				"KHR_materials_specular":{
					"specularColorFactor":[
						0,
						0,
						0
					]
				},
				"KHR_materials_ior":{
					"ior":1.4500000476837158
				}
			},
			"name":"sunbeams",
			"pbrMetallicRoughness":{
				"metallicFactor":0,
				"roughnessFactor":0.5527864098548889
			}
		},
		{
			"doubleSided":true,
			"extensions":{
				"KHR_materials_specular":{
					"specularColorFactor":[
						2.371357614441398,
						2.371357614441398,
						2.371357614441398
					]
				},
				"KHR_materials_ior":{
					"ior":1.4500000476837158
				}
			},
			"name":"door",
			"pbrMetallicRoughness":{
				"baseColorFactor":[
					0.1882353127002716,
					0.13725490868091583,
					0.08627451211214066,
					1
				],
				"metallicFactor":0,
				"roughnessFactor":0.5527864098548889
			}
		},
		{
			"doubleSided":true,
			"extensions":{
				"KHR_materials_specular":{
					"specularColorFactor":[
						0,
						0,
						0
					]
				},
				"KHR_materials_ior":{
					"ior":1.4500000476837158
				}
			},
			"name":"windows",
			"pbrMetallicRoughness":{
				"metallicFactor":0,
				"roughnessFactor":0.5527864098548889
			}
		}
	],
	"meshes":[
		{
			"name":"Mesh",
			"primitives":[
				{
					"attributes":{
						"POSITION":0,
						"NORMAL":1,
						"TEXCOORD_0":2
					},
					"indices":3
				}
			]
		},
		{
			"name":"Mesh.001",
			"primitives":[
				{
					"attributes":{
						"POSITION":4,
						"NORMAL":5,
						"TEXCOORD_0":6
					},
					"indices":7,
					"material":0
				}
			]
		},
		{
			"name":"Mesh.002",
			"primitives":[
				{
					"attributes":{
						"POSITION":8,
						"NORMAL":9
					},
					"indices":10,
					"material":1
				}
			]
		},
		{
			"name":"Mesh.003",
			"primitives":[
				{
					"attributes":{
						"POSITION":11,
						"NORMAL":12
					},
					"indices":10,
					"material":1
				}
			]
		},
		{
			"name":"Mesh.004",
			"primitives":[
				{
					"attributes":{
						"POSITION":13,
						"NORMAL":14
					},
					"indices":10,
					"material":1
				}
			]
		},
		{
			"name":"Mesh.005",
			"primitives":[
				{
					"attributes":{
						"POSITION":15,
						"NORMAL":16
					},
					"indices":10,
					"material":1
				}
			]
		},
		{
			"name":"Mesh.006",
			"primitives":[
				{
					"attributes":{
						"POSITION":17,
						"NORMAL":18
					},
					"indices":19,
					"material":1
				}
			]
		},
		{
			"name":"Mesh.007",
			"primitives":[
				{
					"attributes":{
						"POSITION":20,
						"NORMAL":21
					},
					"indices":22,
					"material":1
				}
			]
		},
		{
			"name":"Mesh.008",
			"primitives":[
				{
					"attributes":{
						"POSITION":23,
						"NORMAL":24
					},
					"indices":19,
					"material":1
				}
			]
		},
		{
			"name":"Mesh.009",
			"primitives":[
				{
					"attributes":{
						"POSITION":25,
						"NORMAL":26
					},
					"indices":22,
					"material":1
				}
			]
		},
		{
			"name":"Mesh.010",
			"primitives":[
				{
					"attributes":{
						"POSITION":27,
						"NORMAL":28
					},
					"indices":22,
					"material":1
				}
			]
		},
		{
			"name":"Mesh.011",
			"primitives":[
				{
					"attributes":{
						"POSITION":29,
						"NORMAL":30
					},
					"indices":22,
					"material":1
				}
			]
		},
		{
			"name":"Mesh.012",
			"primitives":[
				{
					"attributes":{
						"POSITION":31,
						"NORMAL":32
					},
					"indices":22,
					"material":1
				}
			]
		},
		{
			"name":"Mesh.013",
			"primitives":[
				{
					"attributes":{
						"POSITION":33,
						"NORMAL":34
					},
					"indices":22,
					"material":1
				}
			]
		},
		{
			"name":"Mesh.014",
			"primitives":[
				{
					"attributes":{
						"POSITION":35,
						"NORMAL":36,
						"TEXCOORD_0":37
					},
					"indices":38,
					"material":2
				}
			]
		},
		{
			"name":"Mesh.015",
			"primitives":[
				{
					"attributes":{
						"POSITION":39,
						"NORMAL":40,
						"TEXCOORD_0":41
					},
					"indices":42,
					"material":3
				}
			]
		},
		{
			"name":"Mesh.016",
			"primitives":[
				{
					"attributes":{
						"POSITION":43,
						"NORMAL":44,
						"TEXCOORD_0":45
					},
					"indices":46,
					"material":4
				}
			]
		}
	],
	"accessors":[
		{
			"bufferView":0,
			"componentType":5126,
			"count":2620,
			"max":[
				6,
				13.5,
				9.9961519241333
			],
			"min":[
				-6,
				-7.1038707574189175e-06,
				-7.9200005531311035
			],
			"type":"VEC3"
		},
		{
			"bufferView":1,
			"componentType":5126,
			"count":2620,
			"type":"VEC3"
		},
		{
			"bufferView":2,
			"componentType":5126,
			"count":2620,
			"type":"VEC2"
		},
		{
			"bufferView":3,
			"componentType":5123,
			"count":5130,
			"type":"SCALAR"
		},
		{
			"bufferView":4,
			"componentType":5126,
			"count":1706,
			"max":[
				3.2000010013580322,
				13.5,
				7.160577774047852
			],
			"min":[
				-3.200000286102295,
				5.050000190734863,
				-7.550030708312988
			],
			"type":"VEC3"
		},
		{
			"bufferView":5,
			"componentType":5126,
			"count":1706,
			"type":"VEC3"
		},
		{
			"bufferView":6,
			"componentType":5126,
			"count":1706,
			"type":"VEC2"
		},
		{
			"bufferView":7,
			"componentType":5123,
			"count":3204,
			"type":"SCALAR"
		},
		{
			"bufferView":8,
			"componentType":5126,
			"count":356,
			"max":[
				0.3999996483325958,
				6.599999904632568,
				0.47499895095825195
			],
			"min":[
				-0.40000060200691223,
				-8.10846287890854e-08,
				-1.8250007629394531
			],
			"type":"VEC3"
		},
		{
			"bufferView":9,
			"componentType":5126,
			"count":356,
			"type":"VEC3"
		},
		{
			"bufferView":10,
			"componentType":5123,
			"count":852,
			"type":"SCALAR"
		},
		{
			"bufferView":11,
			"componentType":5126,
			"count":356,
			"max":[
				0.3999996483325958,
				6.599999904632568,
				0.47499895095825195
			],
			"min":[
				-0.40000060200691223,
				-8.10846287890854e-08,
				-1.8250007629394531
			],
			"type":"VEC3"
		},
		{
			"bufferView":12,
			"componentType":5126,
			"count":356,
			"type":"VEC3"
		},
		{
			"bufferView":13,
			"componentType":5126,
			"count":356,
			"max":[
				0.3999996483325958,
				6.599999904632568,
				0.47499895095825195
			],
			"min":[
				-0.40000060200691223,
				-8.10846287890854e-08,
				-1.8250007629394531
			],
			"type":"VEC3"
		},
		{
			"bufferView":14,
			"componentType":5126,
			"count":356,
			"type":"VEC3"
		},
		{
			"bufferView":15,
			"componentType":5126,
			"count":356,
			"max":[
				0.3999996483325958,
				6.599999904632568,
				0.47499895095825195
			],
			"min":[
				-0.40000060200691223,
				-8.10846287890854e-08,
				-1.8250007629394531
			],
			"type":"VEC3"
		},
		{
			"bufferView":16,
			"componentType":5126,
			"count":356,
			"type":"VEC3"
		},
		{
			"bufferView":17,
			"componentType":5126,
			"count":368,
			"max":[
				0.3999996483325958,
				0.014999999664723873,
				0.47499895095825195
			],
			"min":[
				-0.40000060200691223,
				-0.01500007975846529,
				-1.8250007629394531
			],
			"type":"VEC3"
		},
		{
			"bufferView":18,
			"componentType":5126,
			"count":368,
			"type":"VEC3"
		},
		{
			"bufferView":19,
			"componentType":5123,
			"count":888,
			"type":"SCALAR"
		},
		{
			"bufferView":20,
			"componentType":5126,
			"count":178,
			"max":[
				0.3999996483325958,
				0.014999999664723873,
				0.47499895095825195
			],
			"min":[
				-0.40000060200691223,
				-8.10846287890854e-08,
				-1.8250007629394531
			],
			"type":"VEC3"
		},
		{
			"bufferView":21,
			"componentType":5126,
			"count":178,
			"type":"VEC3"
		},
		{
			"bufferView":22,
			"componentType":5123,
			"count":426,
			"type":"SCALAR"
		},
		{
			"bufferView":23,
			"componentType":5126,
			"count":368,
			"max":[
				0.3999996483325958,
				0.014999999664723873,
				0.47499895095825195
			],
			"min":[
				-0.40000060200691223,
				-0.01500007975846529,
				-1.8250007629394531
			],
			"type":"VEC3"
		},
		{
			"bufferView":24,
			"componentType":5126,
			"count":368,
			"type":"VEC3"
		},
		{
			"bufferView":25,
			"componentType":5126,
			"count":178,
			"max":[
				0.3999996483325958,
				0.014999999664723873,
				0.47499895095825195
			],
			"min":[
				-0.40000060200691223,
				-8.10846287890854e-08,
				-1.8250007629394531
			],
			"type":"VEC3"
		},
		{
			"bufferView":26,
			"componentType":5126,
			"count":178,
			"type":"VEC3"
		},
		{
			"bufferView":27,
			"componentType":5126,
			"count":178,
			"max":[
				0.3999996483325958,
				0.014999999664723873,
				0.47499895095825195
			],
			"min":[
				-0.40000060200691223,
				-8.10846287890854e-08,
				-1.8250007629394531
			],
			"type":"VEC3"
		},
		{
			"bufferView":28,
			"componentType":5126,
			"count":178,
			"type":"VEC3"
		},
		{
			"bufferView":29,
			"componentType":5126,
			"count":178,
			"max":[
				0.3999996483325958,
				0.014999999664723873,
				0.47499895095825195
			],
			"min":[
				-0.40000060200691223,
				-8.10846287890854e-08,
				-1.8250007629394531
			],
			"type":"VEC3"
		},
		{
			"bufferView":30,
			"componentType":5126,
			"count":178,
			"type":"VEC3"
		},
		{
			"bufferView":31,
			"componentType":5126,
			"count":178,
			"max":[
				0.3999996483325958,
				0.014999999664723873,
				0.47499895095825195
			],
			"min":[
				-0.40000060200691223,
				-8.10846287890854e-08,
				-1.8250007629394531
			],
			"type":"VEC3"
		},
		{
			"bufferView":32,
			"componentType":5126,
			"count":178,
			"type":"VEC3"
		},
		{
			"bufferView":33,
			"componentType":5126,
			"count":178,
			"max":[
				0.3999996483325958,
				0.014999999664723873,
				0.47499895095825195
			],
			"min":[
				-0.40000060200691223,
				-8.10846287890854e-08,
				-1.8250007629394531
			],
			"type":"VEC3"
		},
		{
			"bufferView":34,
			"componentType":5126,
			"count":178,
			"type":"VEC3"
		},
		{
			"bufferView":35,
			"componentType":5126,
			"count":12,
			"max":[
				1.6476848125457764,
				1.5796666145324707,
				-0.012058258056640625
			],
			"min":[
				-2.093928098678589,
				-0.9665358662605286,
				-14.499735832214355
			],
			"type":"VEC3"
		},
		{
			"bufferView":36,
			"componentType":5126,
			"count":12,
			"type":"VEC3"
		},
		{
			"bufferView":37,
			"componentType":5126,
			"count":12,
			"type":"VEC2"
		},
		{
			"bufferView":38,
			"componentType":5123,
			"count":18,
			"type":"SCALAR"
		},
		{
			"bufferView":39,
			"componentType":5126,
			"count":202,
			"max":[
				-3.299999475479126,
				9.900001525878906,
				4.8067216873168945
			],
			"min":[
				-3.382143020629883,
				6.499999523162842,
				4.006720542907715
			],
			"type":"VEC3"
		},
		{
			"bufferView":40,
			"componentType":5126,
			"count":202,
			"type":"VEC3"
		},
		{
			"bufferView":41,
			"componentType":5126,
			"count":202,
			"type":"VEC2"
		},
		{
			"bufferView":42,
			"componentType":5123,
			"count":432,
			"type":"SCALAR"
		},
		{
			"bufferView":43,
			"componentType":5126,
			"count":169,
			"max":[
				4.209809303283691,
				9.900001525878906,
				9.9961519241333
			],
			"min":[
				-4.209805488586426,
				-6.757676601409912e-06,
				-7.9200005531311035
			],
			"type":"VEC3"
		},
		{
			"bufferView":44,
			"componentType":5126,
			"count":169,
			"type":"VEC3"
		},
		{
			"bufferView":45,
			"componentType":5126,
			"count":169,
			"type":"VEC2"
		},
		{
			"bufferView":46,
			"componentType":5123,
			"count":405,
			"type":"SCALAR"
		}
	],
	"bufferViews":[
		{
			"buffer":0,
			"byteLength":31440,
			"byteOffset":0,
			"target":34962
		},
		{
			"buffer":0,
			"byteLength":31440,
			"byteOffset":31440,
			"target":34962
		},
		{
			"buffer":0,
			"byteLength":20960,
			"byteOffset":62880,
			"target":34962
		},
		{
			"buffer":0,
			"byteLength":10260,
			"byteOffset":83840,
			"target":34963
		},
		{
			"buffer":0,
			"byteLength":20472,
			"byteOffset":94100,
			"target":34962
		},
		{
			"buffer":0,
			"byteLength":20472,
			"byteOffset":114572,
			"target":34962
		},
		{
			"buffer":0,
			"byteLength":13648,
			"byteOffset":135044,
			"target":34962
		},
		{
			"buffer":0,
			"byteLength":6408,
			"byteOffset":148692,
			"target":34963
		},
		{
			"buffer":0,
			"byteLength":4272,
			"byteOffset":155100,
			"target":34962
		},
		{
			"buffer":0,
			"byteLength":4272,
			"byteOffset":159372,
			"target":34962
		},
		{
			"buffer":0,
			"byteLength":1704,
			"byteOffset":163644,
			"target":34963
		},
		{
			"buffer":0,
			"byteLength":4272,
			"byteOffset":165348,
			"target":34962
		},
		{
			"buffer":0,
			"byteLength":4272,
			"byteOffset":169620,
			"target":34962
		},
		{
			"buffer":0,
			"byteLength":4272,
			"byteOffset":173892,
			"target":34962
		},
		{
			"buffer":0,
			"byteLength":4272,
			"byteOffset":178164,
			"target":34962
		},
		{
			"buffer":0,
			"byteLength":4272,
			"byteOffset":182436,
			"target":34962
		},
		{
			"buffer":0,
			"byteLength":4272,
			"byteOffset":186708,
			"target":34962
		},
		{
			"buffer":0,
			"byteLength":4416,
			"byteOffset":190980,
			"target":34962
		},
		{
			"buffer":0,
			"byteLength":4416,
			"byteOffset":195396,
			"target":34962
		},
		{
			"buffer":0,
			"byteLength":1776,
			"byteOffset":199812,
			"target":34963
		},
		{
			"buffer":0,
			"byteLength":2136,
			"byteOffset":201588,
			"target":34962
		},
		{
			"buffer":0,
			"byteLength":2136,
			"byteOffset":203724,
			"target":34962
		},
		{
			"buffer":0,
			"byteLength":852,
			"byteOffset":205860,
			"target":34963
		},
		{
			"buffer":0,
			"byteLength":4416,
			"byteOffset":206712,
			"target":34962
		},
		{
			"buffer":0,
			"byteLength":4416,
			"byteOffset":211128,
			"target":34962
		},
		{
			"buffer":0,
			"byteLength":2136,
			"byteOffset":215544,
			"target":34962
		},
		{
			"buffer":0,
			"byteLength":2136,
			"byteOffset":217680,
			"target":34962
		},
		{
			"buffer":0,
			"byteLength":2136,
			"byteOffset":219816,
			"target":34962
		},
		{
			"buffer":0,
			"byteLength":2136,
			"byteOffset":221952,
			"target":34962
		},
		{
			"buffer":0,
			"byteLength":2136,
			"byteOffset":224088,
			"target":34962
		},
		{
			"buffer":0,
			"byteLength":2136,
			"byteOffset":226224,
			"target":34962
		},
		{
			"buffer":0,
			"byteLength":2136,
			"byteOffset":228360,
			"target":34962
		},
		{
			"buffer":0,
			"byteLength":2136,
			"byteOffset":230496,
			"target":34962
		},
		{
			"buffer":0,
			"byteLength":2136,
			"byteOffset":232632,
			"target":34962
		},
		{
			"buffer":0,
			"byteLength":2136,
			"byteOffset":234768,
			"target":34962
		},
		{
			"buffer":0,
			"byteLength":144,
			"byteOffset":236904,
			"target":34962
		},
		{
			"buffer":0,
			"byteLength":144,
			"byteOffset":237048,
			"target":34962
		},
		{
			"buffer":0,
			"byteLength":96,
			"byteOffset":237192,
			"target":34962
		},
		{
			"buffer":0,
			"byteLength":36,
			"byteOffset":237288,
			"target":34963
		},
		{
			"buffer":0,
			"byteLength":2424,
			"byteOffset":237324,
			"target":34962
		},
		{
			"buffer":0,
			"byteLength":2424,
			"byteOffset":239748,
			"target":34962
		},
		{
			"buffer":0,
			"byteLength":1616,
			"byteOffset":242172,
			"target":34962
		},
		{
			"buffer":0,
			"byteLength":864,
			"byteOffset":243788,
			"target":34963
		},
		{
			"buffer":0,
			"byteLength":2028,
			"byteOffset":244652,
			"target":34962
		},
		{
			"buffer":0,
			"byteLength":2028,
			"byteOffset":246680,
			"target":34962
		},
		{
			"buffer":0,
			"byteLength":1352,
			"byteOffset":248708,
			"target":34962
		},
		{
			"buffer":0,
			"byteLength":810,
			"byteOffset":250060,
			"target":34963
		}
	],
	"buffers":[
		{
			"byteLength":250872,
			"uri":"data:application/octet-stream;base64,"
		}
	]
}
