<svg version="1.1" id="Layer_1" xmlns="http://www.w3.org/2000/svg" xmlns:xlink="http://www.w3.org/1999/xlink" x="0px" y="0px"
	 width="100%" viewBox="0 0 256 253" enable-background="new 0 0 256 253" xml:space="preserve">
<path fill="currentColor" opacity="1.000000" stroke="none" 
	d="
M117.000000,1.000001 
	C124.687584,1.000000 132.375168,1.000000 140.613678,1.329881 
	C146.593384,7.835013 152.957352,13.431666 157.223053,20.326477 
	C163.047333,29.740498 167.233185,40.163338 172.203888,50.112503 
	C174.429321,54.566853 176.508453,59.155083 179.279419,63.260399 
	C182.587830,68.161949 186.881058,71.597122 193.409485,72.280609 
	C204.114578,73.401352 214.887360,74.739563 225.325729,77.255188 
	C232.900650,79.080727 240.366531,82.285736 247.137283,86.171593 
	C251.168564,88.485214 253.760818,93.306221 257.000000,97.000000 
	C257.000000,103.354401 257.000000,109.708794 256.675232,116.627838 
	C253.374847,121.154816 250.736038,125.435089 247.355911,129.015503 
	C239.518372,137.317444 231.768768,145.796722 223.157501,153.249710 
	C212.713669,162.288803 208.904434,171.901123 213.640320,185.718536 
	C218.507858,199.919998 222.295059,214.629776 221.119659,230.108780 
	C220.640152,236.423187 218.895996,241.708313 214.387787,246.138855 
	C211.825089,248.657379 209.456192,251.373093 207.000000,254.000000 
	C199.645752,254.000000 192.291504,254.000000 184.383835,253.665649 
	C181.914871,252.083878 180.070129,250.707031 178.070435,249.613525 
	C172.266296,246.439621 166.314880,243.527847 160.578323,240.239243 
	C152.261185,235.471268 144.123962,230.389435 135.807404,225.620407 
	C134.160507,224.676010 132.078064,224.293274 130.148483,224.074432 
	C122.329369,223.187576 116.912598,228.766891 110.745308,231.924225 
	C99.567978,237.646469 88.850403,244.271301 77.993217,250.608963 
	C76.508301,251.475754 75.323662,252.856964 74.000000,254.000000 
	C66.979050,254.000000 59.958103,254.000000 52.391735,253.669678 
	C50.473099,252.161591 49.128384,250.948532 47.721542,249.812408 
	C42.695889,245.753952 37.682911,241.109085 37.419395,234.510132 
	C37.051010,225.285019 37.451183,215.879593 38.903858,206.771637 
	C40.494213,196.800507 43.494778,187.035416 46.188545,177.265411 
	C48.158134,170.121918 45.698532,164.429977 40.910072,159.574707 
	C36.030708,154.627274 30.608240,150.217773 25.686852,145.308807 
	C20.884964,140.519028 16.299269,135.497437 11.836463,130.387405 
	C8.062566,126.066193 4.600227,121.472885 1.000002,117.000000 
	C1.000000,110.645599 1.000000,104.291206 1.325624,97.371735 
	C6.965037,87.556931 14.870597,81.241142 25.065805,78.764992 
	C35.677475,76.187691 46.544315,73.810486 57.393188,73.287476 
	C69.461052,72.705696 77.423286,67.791229 82.464600,57.126167 
	C87.928207,45.567757 93.459763,34.035336 99.288155,22.658834 
	C101.297775,18.736231 104.063835,15.130131 106.891411,11.716641 
	C110.017502,7.942771 113.610405,4.555592 117.000000,1.000001 
M57.560280,93.019272 
	C48.731491,94.641685 39.916000,96.341278 31.070297,97.865532 
	C21.592445,99.498711 18.476814,105.829971 24.114834,113.389275 
	C28.136003,118.780739 33.042320,123.525429 37.677578,128.441895 
	C42.787266,133.861557 47.581413,139.710800 53.324387,144.373566 
	C64.929268,153.795670 67.616096,166.142258 65.365517,179.730087 
	C63.061508,193.640396 59.419384,207.326996 56.454254,221.131134 
	C55.549480,225.343323 55.183605,230.255417 59.425659,232.318375 
	C62.166199,233.651138 66.237839,232.312271 69.702675,232.039749 
	C70.478172,231.978760 71.236900,231.416718 71.958939,231.007080 
	C83.940903,224.209122 96.157471,217.780777 107.787155,210.424850 
	C113.346512,206.908493 118.913033,204.474884 125.324440,204.315079 
	C133.266006,204.117081 140.839188,204.463608 148.192520,209.172363 
	C161.035233,217.396271 174.521240,224.660187 188.042267,231.745071 
	C190.970840,233.279617 195.693436,233.543457 198.684174,232.268448 
	C202.537323,230.625793 202.506393,225.882507 201.723511,222.017914 
	C199.085129,208.993988 196.310852,195.996399 193.459122,183.017181 
	C190.120255,167.820786 192.030640,154.285583 205.217514,144.107574 
	C206.000519,143.503220 206.633392,142.702423 207.326157,141.983429 
	C213.650970,135.419144 220.051926,128.925690 226.263901,122.256241 
	C229.386215,118.903969 232.550842,115.478477 235.006271,111.644203 
	C238.656540,105.944084 235.537781,99.349396 228.819641,98.103966 
	C215.416763,95.619278 201.974152,93.349823 188.558014,90.935532 
	C179.524658,89.309937 170.979630,86.400612 165.354172,78.650719 
	C162.385452,74.560890 160.368896,69.762947 158.059448,65.215149 
	C153.626663,56.486076 149.534653,47.574047 144.829681,38.996601 
	C141.728897,33.343674 138.108734,27.905760 134.149704,22.816053 
	C131.098129,18.892973 126.584648,19.064857 123.436279,22.818336 
	C120.996994,25.726444 118.749100,28.892962 116.973030,32.240108 
	C112.621002,40.441856 108.553146,48.795818 104.446831,57.125942 
	C102.251442,61.579536 100.419411,66.222374 98.056870,70.581139 
	C94.292107,77.526939 89.867455,84.253792 81.993202,86.869446 
	C74.310570,89.421448 66.289848,90.955605 57.560280,93.019272 
z"/>
<path fill="currentColor" opacity="1.000000" stroke="none" 
	d="
M257.000000,96.531342 
	C253.760818,93.306221 251.168564,88.485214 247.137283,86.171593 
	C240.366531,82.285736 232.900650,79.080727 225.325729,77.255188 
	C214.887360,74.739563 204.114578,73.401352 193.409485,72.280609 
	C186.881058,71.597122 182.587830,68.161949 179.279419,63.260399 
	C176.508453,59.155083 174.429321,54.566853 172.203888,50.112503 
	C167.233185,40.163338 163.047333,29.740498 157.223053,20.326477 
	C152.957352,13.431666 146.593384,7.835013 141.082306,1.329881 
	C179.586716,1.000000 218.173447,1.000000 257.000000,1.000000 
	C257.000000,32.687157 257.000000,64.374924 257.000000,96.531342 
z"/>
<path fill="currentColor" opacity="1.000000" stroke="none" 
	d="
M116.531342,1.000001 
	C113.610405,4.555592 110.017502,7.942771 106.891411,11.716641 
	C104.063835,15.130131 101.297775,18.736231 99.288155,22.658834 
	C93.459763,34.035336 87.928207,45.567757 82.464600,57.126167 
	C77.423286,67.791229 69.461052,72.705696 57.393188,73.287476 
	C46.544315,73.810486 35.677475,76.187691 25.065805,78.764992 
	C14.870597,81.241142 6.965037,87.556931 1.325624,96.903328 
	C1.000000,65.066162 1.000000,33.132324 1.000000,1.000000 
	C39.354000,1.000000 77.708344,1.000000 116.531342,1.000001 
z"/>
<path fill="currentColor" opacity="1.000000" stroke="none" 
	d="
M1.000002,117.468658 
	C4.600227,121.472885 8.062566,126.066193 11.836463,130.387405 
	C16.299269,135.497437 20.884964,140.519028 25.686852,145.308807 
	C30.608240,150.217773 36.030708,154.627274 40.910072,159.574707 
	C45.698532,164.429977 48.158134,170.121918 46.188545,177.265411 
	C43.494778,187.035416 40.494213,196.800507 38.903858,206.771637 
	C37.451183,215.879593 37.051010,225.285019 37.419395,234.510132 
	C37.682911,241.109085 42.695889,245.753952 47.721542,249.812408 
	C49.128384,250.948532 50.473099,252.161591 51.923157,253.669678 
	C35.039650,254.000000 18.079300,254.000000 1.000000,254.000000 
	C1.000000,208.645844 1.000000,163.291580 1.000002,117.468658 
z"/>
<path fill="currentColor" opacity="1.000000" stroke="none" 
	d="
M207.468658,254.000000 
	C209.456192,251.373093 211.825089,248.657379 214.387787,246.138855 
	C218.895996,241.708313 220.640152,236.423187 221.119659,230.108780 
	C222.295059,214.629776 218.507858,199.919998 213.640320,185.718536 
	C208.904434,171.901123 212.713669,162.288803 223.157501,153.249710 
	C231.768768,145.796722 239.518372,137.317444 247.355911,129.015503 
	C250.736038,125.435089 253.374847,121.154816 256.675232,117.096237 
	C257.000000,162.559586 257.000000,208.119171 257.000000,254.000000 
	C240.647171,254.000000 224.292252,254.000000 207.468658,254.000000 
z"/>
<path fill="currentColor" opacity="1.000000" stroke="none" 
	d="
M74.468658,254.000000 
	C75.323662,252.856964 76.508301,251.475754 77.993217,250.608963 
	C88.850403,244.271301 99.567978,237.646469 110.745308,231.924225 
	C116.912598,228.766891 122.329369,223.187576 130.148483,224.074432 
	C132.078064,224.293274 134.160507,224.676010 135.807404,225.620407 
	C144.123962,230.389435 152.261185,235.471268 160.578323,240.239243 
	C166.314880,243.527847 172.266296,246.439621 178.070435,249.613525 
	C180.070129,250.707031 181.914871,252.083878 183.915207,253.665649 
	C147.645767,254.000000 111.291542,254.000000 74.468658,254.000000 
z"/>
<path fill="currentColor" opacity="1.000000" stroke="none" 
	d="
M57.988914,92.977943 
	C66.289848,90.955605 74.310570,89.421448 81.993202,86.869446 
	C89.867455,84.253792 94.292107,77.526939 98.056870,70.581139 
	C100.419411,66.222374 102.251442,61.579536 104.446831,57.125942 
	C108.553146,48.795818 112.621002,40.441856 116.973030,32.240108 
	C118.749100,28.892962 120.996994,25.726444 123.436279,22.818336 
	C126.584648,19.064857 131.098129,18.892973 134.149704,22.816053 
	C138.108734,27.905760 141.728897,33.343674 144.829681,38.996601 
	C149.534653,47.574047 153.626663,56.486076 158.059448,65.215149 
	C160.368896,69.762947 162.385452,74.560890 165.354172,78.650719 
	C170.979630,86.400612 179.524658,89.309937 188.558014,90.935532 
	C201.974152,93.349823 215.416763,95.619278 228.819641,98.103966 
	C235.537781,99.349396 238.656540,105.944084 235.006271,111.644203 
	C232.550842,115.478477 229.386215,118.903969 226.263901,122.256241 
	C220.051926,128.925690 213.650970,135.419144 207.326157,141.983429 
	C206.633392,142.702423 206.000519,143.503220 205.217514,144.107574 
	C192.030640,154.285583 190.120255,167.820786 193.459122,183.017181 
	C196.310852,195.996399 199.085129,208.993988 201.723511,222.017914 
	C202.506393,225.882507 202.537323,230.625793 198.684174,232.268448 
	C195.693436,233.543457 190.970840,233.279617 188.042267,231.745071 
	C174.521240,224.660187 161.035233,217.396271 148.192520,209.172363 
	C140.839188,204.463608 133.266006,204.117081 125.324440,204.315079 
	C118.913033,204.474884 113.346512,206.908493 107.787155,210.424850 
	C96.157471,217.780777 83.940903,224.209122 71.958939,231.007080 
	C71.236900,231.416718 70.478172,231.978760 69.702675,232.039749 
	C66.237839,232.312271 62.166199,233.651138 59.425659,232.318375 
	C55.183605,230.255417 55.549480,225.343323 56.454254,221.131134 
	C59.419384,207.326996 63.061508,193.640396 65.365517,179.730087 
	C67.616096,166.142258 64.929268,153.795670 53.324387,144.373566 
	C47.581413,139.710800 42.787266,133.861557 37.677578,128.441895 
	C33.042320,123.525429 28.136003,118.780739 24.114834,113.389275 
	C18.476814,105.829971 21.592445,99.498711 31.070297,97.865532 
	C39.916000,96.341278 48.731491,94.641685 57.988914,92.977943 
z"/>
</svg>